/* XPM */
static char * grid_xpm[] = {
"100 100 17 1",
" 	c #FFFFFF",
".	c #F4F5FF",
"+	c #C4C9FF",
"@	c #8F99FF",
"#	c #D4D8FF",
"$	c #3D4EFF",
"%	c #0016FF",
"&	c #5463FF",
"*	c #0F24FF",
"=	c #EAECFF",
"-	c #8993FF",
";	c #1F32FF",
">	c #9EA6FF",
",	c #808BFF",
"'	c #E9EBFF",
")	c #8892FF",
"!	c #1E31FF",
"                                                                                                    ",
"                                                                                                    ",
"                                                                                                    ",
"                                                                                                    ",
"                                                                                                    ",
"                                                                                                    ",
"                                                                                                    ",
"                           .+@@+.              .+@@+.              .+@@+.                           ",
"        #$%$#              +&**&+              +&**&+              +&**&+              =-;;-=       ",
"        $%%%$              @*%%*@              @*%%*@              @*%%*@              >;%%;>       ",
"        %%%%%              @*%%*@              @*%%*@              @*%%*@              ,%%%%,       ",
"        $%%%$              +&**&+              +&**&+              +&**&+              >;%%;>       ",
"        #$%$#              .+@@+.              .+@@+.              .+@@+.              ')!!)'       ",
"                                                                                                    ",
"                                                                                                    ",
"                                                                                                    ",
"                                                                                                    ",
"                                                                                                    ",
"                                                                                                    ",
"                                                                                                    ",
"                                                                                                    ",
"                                                                                                    ",
"                                                                                                    ",
"                                                                                                    ",
"                                                                                                    ",
"                                                                                                    ",
"                                                                                                    ",
"                           .+@@+.              .+@@+.              .+@@+.                           ",
"        #$%$#              +&**&+              +&**&+              +&**&+              =-;;-=       ",
"        $%%%$              @*%%*@              @*%%*@              @*%%*@              >;%%;>       ",
"        %%%%%              @*%%*@              @*%%*@              @*%%*@              ,%%%%,       ",
"        $%%%$              +&**&+              +&**&+              +&**&+              >;%%;>       ",
"        #$%$#              .+@@+.              .+@@+.              .+@@+.              ')!!)'       ",
"                                                                                                    ",
"                                                                                                    ",
"                                                                                                    ",
"                                                                                                    ",
"                                                                                                    ",
"                                                                                                    ",
"                                                                                                    ",
"                                                                                                    ",
"                                                                                                    ",
"                                                                                                    ",
"                                                                                                    ",
"                                                                                                    ",
"                                                                                                    ",
"                                                                                                    ",
"                           .+@@+.              .+@@+.              .+@@+.                           ",
"        #$%$#              +&**&+              +&**&+              +&**&+              =-;;-=       ",
"        $%%%$              @*%%*@              @*%%*@              @*%%*@              >;%%;>       ",
"        %%%%%              @*%%*@              @*%%*@              @*%%*@              ,%%%%,       ",
"        $%%%$              +&**&+              +&**&+              +&**&+              >;%%;>       ",
"        #$%$#              .+@@+.              .+@@+.              .+@@+.              ')!!)'       ",
"                                                                                                    ",
"                                                                                                    ",
"                                                                                                    ",
"                                                                                                    ",
"                                                                                                    ",
"                                                                                                    ",
"                                                                                                    ",
"                                                                                                    ",
"                                                                                                    ",
"                                                                                                    ",
"                                                                                                    ",
"                                                                                                    ",
"                                                                                                    ",
"                           .+@@+.              .+@@+.              .+@@+.                           ",
"        #$%$#              +&**&+              +&**&+              +&**&+              =-;;-=       ",
"        $%%%$              @*%%*@              @*%%*@              @*%%*@              >;%%;>       ",
"        %%%%%              @*%%*@              @*%%*@              @*%%*@              ,%%%%,       ",
"        $%%%$              +&**&+              +&**&+              +&**&+              >;%%;>       ",
"        #$%$#              .+@@+.              .+@@+.              .+@@+.              ')!!)'       ",
"                                                                                                    ",
"                                                                                                    ",
"                                                                                                    ",
"                                                                                                    ",
"                                                                                                    ",
"                                                                                                    ",
"                                                                                                    ",
"                                                                                                    ",
"                                                                                                    ",
"                                                                                                    ",
"                                                                                                    ",
"                                                                                                    ",
"                                                                                                    ",
"                           .+@@+.              .+@@+.              .+@@+.                           ",
"        #$%$#              +&**&+              +&**&+              +&**&+              =-;;-=       ",
"        $%%%$              @*%%*@              @*%%*@              @*%%*@              >;%%;>       ",
"        %%%%%              @*%%*@              @*%%*@              @*%%*@              ,%%%%,       ",
"        $%%%$              +&**&+              +&**&+              +&**&+              >;%%;>       ",
"        #$%$#              .+@@+.              .+@@+.              .+@@+.              ')!!)'       ",
"                                                                                                    ",
"                                                                                                    ",
"                                                                                                    ",
"                                                                                                    ",
"                                                                                                    ",
"                                                                                                    ",
"                                                                                                    ",
"                                                                                                    ",
"                                                                                                    "};
