<?xml version="1.0" encoding="UTF-8" standalone="no"?>
<!-- Created with Inkscape (http://www.inkscape.org/) -->

<svg
   xmlns:dc="http://purl.org/dc/elements/1.1/"
   xmlns:cc="http://creativecommons.org/ns#"
   xmlns:rdf="http://www.w3.org/1999/02/22-rdf-syntax-ns#"
   xmlns:svg="http://www.w3.org/2000/svg"
   xmlns="http://www.w3.org/2000/svg"
   xmlns:sodipodi="http://sodipodi.sourceforge.net/DTD/sodipodi-0.dtd"
   xmlns:inkscape="http://www.inkscape.org/namespaces/inkscape"
   width="1052.3622"
   height="744.09448"
   id="svg2"
   version="1.1"
   inkscape:version="0.47 r22583"
   sodipodi:docname="borderPolicies.svg"
   inkscape:export-filename="/Users/mixim/git-workspace/mixim/doc/images/borderPolicies.png"
   inkscape:export-xdpi="90"
   inkscape:export-ydpi="90">
  <defs
     id="defs4">
    <marker
       inkscape:stockid="Arrow1Mstart"
       orient="auto"
       refY="0.0"
       refX="0.0"
       id="Arrow1Mstart"
       style="overflow:visible">
      <path
         id="path3648"
         d="M 0.0,0.0 L 5.0,-5.0 L -12.5,0.0 L 5.0,5.0 L 0.0,0.0 z "
         style="fill-rule:evenodd;stroke:#000000;stroke-width:1.0pt;marker-start:none"
         transform="scale(0.4) translate(10,0)" />
    </marker>
    <marker
       inkscape:stockid="StopL"
       orient="auto"
       refY="0.0"
       refX="0.0"
       id="StopL"
       style="overflow:visible">
      <path
         id="path3812"
         d="M 0.0,5.65 L 0.0,-5.65"
         style="fill:none;fill-opacity:0.75000000;fill-rule:evenodd;stroke:#000000;stroke-width:1.0pt"
         transform="scale(0.8)" />
    </marker>
    <marker
       style="overflow:visible"
       id="DistanceEnd"
       refX="0.0"
       refY="0.0"
       orient="auto"
       inkscape:stockid="DistanceEnd">
      <g
         id="g3698">
        <path
           style="fill:none;stroke:#ffffff;stroke-width:1.15;stroke-linecap:square"
           d="M 0,0 L -2,0"
           id="path2316" />
        <path
           style="fill:#000000;fill-rule:evenodd;stroke:none"
           d="M 0,0 L -13,4 L -9,0 -13,-4 L 0,0 z "
           id="path2312" />
        <path
           style="fill:none;stroke:#000000;stroke-width:1;stroke-linecap:square"
           d="M 0,-4 L 0,40"
           id="path2314" />
      </g>
    </marker>
    <marker
       inkscape:stockid="Arrow1Mend"
       orient="auto"
       refY="0.0"
       refX="0.0"
       id="Arrow1Mend"
       style="overflow:visible;">
      <path
         id="path3651"
         d="M 0.0,0.0 L 5.0,-5.0 L -12.5,0.0 L 5.0,5.0 L 0.0,0.0 z "
         style="fill-rule:evenodd;stroke:#000000;stroke-width:1.0pt;marker-start:none;"
         transform="scale(0.4) rotate(180) translate(10,0)" />
    </marker>
    <marker
       inkscape:stockid="Arrow2Lend"
       orient="auto"
       refY="0.0"
       refX="0.0"
       id="Arrow2Lend"
       style="overflow:visible;">
      <path
         id="path3663"
         style="font-size:12.0;fill-rule:evenodd;stroke-width:0.62500000;stroke-linejoin:round;"
         d="M 8.7185878,4.0337352 L -2.2072895,0.016013256 L 8.7185884,-4.0017078 C 6.9730900,-1.6296469 6.9831476,1.6157441 8.7185878,4.0337352 z "
         transform="scale(1.1) rotate(180) translate(1,0)" />
    </marker>
    <marker
       inkscape:stockid="Arrow1Lend"
       orient="auto"
       refY="0.0"
       refX="0.0"
       id="Arrow1Lend"
       style="overflow:visible;">
      <path
         id="path3645"
         d="M 0.0,0.0 L 5.0,-5.0 L -12.5,0.0 L 5.0,5.0 L 0.0,0.0 z "
         style="fill-rule:evenodd;stroke:#000000;stroke-width:1.0pt;marker-start:none;"
         transform="scale(0.8) rotate(180) translate(12.5,0)" />
    </marker>
    <marker
       inkscape:stockid="DotM"
       orient="auto"
       refY="0.0"
       refX="0.0"
       id="DotM"
       style="overflow:visible">
      <path
         id="path3707"
         d="M -2.5,-1.0 C -2.5,1.7600000 -4.7400000,4.0 -7.5,4.0 C -10.260000,4.0 -12.5,1.7600000 -12.5,-1.0 C -12.5,-3.7600000 -10.260000,-6.0 -7.5,-6.0 C -4.7400000,-6.0 -2.5,-3.7600000 -2.5,-1.0 z "
         style="fill-rule:evenodd;stroke:#000000;stroke-width:1.0pt;marker-start:none;marker-end:none"
         transform="scale(0.4) translate(7.4, 1)" />
    </marker>
    <marker
       inkscape:stockid="Arrow2Mend"
       orient="auto"
       refY="0.0"
       refX="0.0"
       id="Arrow2Mend"
       style="overflow:visible;">
      <path
         id="path3669"
         style="font-size:12.0;fill-rule:evenodd;stroke-width:0.62500000;stroke-linejoin:round;"
         d="M 8.7185878,4.0337352 L -2.2072895,0.016013256 L 8.7185884,-4.0017078 C 6.9730900,-1.6296469 6.9831476,1.6157441 8.7185878,4.0337352 z "
         transform="scale(0.6) rotate(180) translate(0,0)" />
    </marker>
    <inkscape:perspective
       sodipodi:type="inkscape:persp3d"
       inkscape:vp_x="0 : 526.18109 : 1"
       inkscape:vp_y="0 : 1000 : 0"
       inkscape:vp_z="744.09448 : 526.18109 : 1"
       inkscape:persp3d-origin="372.04724 : 350.78739 : 1"
       id="perspective10" />
    <inkscape:perspective
       id="perspective9517"
       inkscape:persp3d-origin="0.5 : 0.33333333 : 1"
       inkscape:vp_z="1 : 0.5 : 1"
       inkscape:vp_y="0 : 1000 : 0"
       inkscape:vp_x="0 : 0.5 : 1"
       sodipodi:type="inkscape:persp3d" />
    <inkscape:perspective
       id="perspective9517-9"
       inkscape:persp3d-origin="0.5 : 0.33333333 : 1"
       inkscape:vp_z="1 : 0.5 : 1"
       inkscape:vp_y="0 : 1000 : 0"
       inkscape:vp_x="0 : 0.5 : 1"
       sodipodi:type="inkscape:persp3d" />
    <inkscape:perspective
       id="perspective9517-8"
       inkscape:persp3d-origin="0.5 : 0.33333333 : 1"
       inkscape:vp_z="1 : 0.5 : 1"
       inkscape:vp_y="0 : 1000 : 0"
       inkscape:vp_x="0 : 0.5 : 1"
       sodipodi:type="inkscape:persp3d" />
    <inkscape:perspective
       id="perspective10169"
       inkscape:persp3d-origin="0.5 : 0.33333333 : 1"
       inkscape:vp_z="1 : 0.5 : 1"
       inkscape:vp_y="0 : 1000 : 0"
       inkscape:vp_x="0 : 0.5 : 1"
       sodipodi:type="inkscape:persp3d" />
    <inkscape:perspective
       id="perspective10197"
       inkscape:persp3d-origin="0.5 : 0.33333333 : 1"
       inkscape:vp_z="1 : 0.5 : 1"
       inkscape:vp_y="0 : 1000 : 0"
       inkscape:vp_x="0 : 0.5 : 1"
       sodipodi:type="inkscape:persp3d" />
    <inkscape:perspective
       id="perspective10219"
       inkscape:persp3d-origin="0.5 : 0.33333333 : 1"
       inkscape:vp_z="1 : 0.5 : 1"
       inkscape:vp_y="0 : 1000 : 0"
       inkscape:vp_x="0 : 0.5 : 1"
       sodipodi:type="inkscape:persp3d" />
    <inkscape:perspective
       id="perspective10244"
       inkscape:persp3d-origin="0.5 : 0.33333333 : 1"
       inkscape:vp_z="1 : 0.5 : 1"
       inkscape:vp_y="0 : 1000 : 0"
       inkscape:vp_x="0 : 0.5 : 1"
       sodipodi:type="inkscape:persp3d" />
    <inkscape:perspective
       id="perspective10272"
       inkscape:persp3d-origin="0.5 : 0.33333333 : 1"
       inkscape:vp_z="1 : 0.5 : 1"
       inkscape:vp_y="0 : 1000 : 0"
       inkscape:vp_x="0 : 0.5 : 1"
       sodipodi:type="inkscape:persp3d" />
    <inkscape:perspective
       id="perspective10300"
       inkscape:persp3d-origin="0.5 : 0.33333333 : 1"
       inkscape:vp_z="1 : 0.5 : 1"
       inkscape:vp_y="0 : 1000 : 0"
       inkscape:vp_x="0 : 0.5 : 1"
       sodipodi:type="inkscape:persp3d" />
    <inkscape:perspective
       id="perspective10546"
       inkscape:persp3d-origin="0.5 : 0.33333333 : 1"
       inkscape:vp_z="1 : 0.5 : 1"
       inkscape:vp_y="0 : 1000 : 0"
       inkscape:vp_x="0 : 0.5 : 1"
       sodipodi:type="inkscape:persp3d" />
    <inkscape:perspective
       id="perspective10577"
       inkscape:persp3d-origin="0.5 : 0.33333333 : 1"
       inkscape:vp_z="1 : 0.5 : 1"
       inkscape:vp_y="0 : 1000 : 0"
       inkscape:vp_x="0 : 0.5 : 1"
       sodipodi:type="inkscape:persp3d" />
    <inkscape:perspective
       id="perspective10577-0"
       inkscape:persp3d-origin="0.5 : 0.33333333 : 1"
       inkscape:vp_z="1 : 0.5 : 1"
       inkscape:vp_y="0 : 1000 : 0"
       inkscape:vp_x="0 : 0.5 : 1"
       sodipodi:type="inkscape:persp3d" />
    <inkscape:perspective
       id="perspective10577-8"
       inkscape:persp3d-origin="0.5 : 0.33333333 : 1"
       inkscape:vp_z="1 : 0.5 : 1"
       inkscape:vp_y="0 : 1000 : 0"
       inkscape:vp_x="0 : 0.5 : 1"
       sodipodi:type="inkscape:persp3d" />
    <inkscape:perspective
       id="perspective10675"
       inkscape:persp3d-origin="0.5 : 0.33333333 : 1"
       inkscape:vp_z="1 : 0.5 : 1"
       inkscape:vp_y="0 : 1000 : 0"
       inkscape:vp_x="0 : 0.5 : 1"
       sodipodi:type="inkscape:persp3d" />
    <inkscape:perspective
       id="perspective10720"
       inkscape:persp3d-origin="0.5 : 0.33333333 : 1"
       inkscape:vp_z="1 : 0.5 : 1"
       inkscape:vp_y="0 : 1000 : 0"
       inkscape:vp_x="0 : 0.5 : 1"
       sodipodi:type="inkscape:persp3d" />
    <inkscape:perspective
       id="perspective11151"
       inkscape:persp3d-origin="0.5 : 0.33333333 : 1"
       inkscape:vp_z="1 : 0.5 : 1"
       inkscape:vp_y="0 : 1000 : 0"
       inkscape:vp_x="0 : 0.5 : 1"
       sodipodi:type="inkscape:persp3d" />
    <inkscape:perspective
       id="perspective14785"
       inkscape:persp3d-origin="0.5 : 0.33333333 : 1"
       inkscape:vp_z="1 : 0.5 : 1"
       inkscape:vp_y="0 : 1000 : 0"
       inkscape:vp_x="0 : 0.5 : 1"
       sodipodi:type="inkscape:persp3d" />
  </defs>
  <sodipodi:namedview
     id="base"
     pagecolor="#ffffff"
     bordercolor="#666666"
     borderopacity="1.0"
     inkscape:pageopacity="1"
     inkscape:pageshadow="2"
     inkscape:zoom="0.60207408"
     inkscape:cx="526.18109"
     inkscape:cy="305.61023"
     inkscape:document-units="px"
     inkscape:current-layer="layer1"
     showgrid="true"
     inkscape:window-width="1280"
     inkscape:window-height="696"
     inkscape:window-x="40"
     inkscape:window-y="0"
     inkscape:window-maximized="0"
     inkscape:snap-grids="true">
    <inkscape:grid
       type="xygrid"
       id="grid2837"
       empspacing="5"
       visible="true"
       enabled="true"
       snapvisiblegridlinesonly="true" />
  </sodipodi:namedview>
  <metadata
     id="metadata7">
    <rdf:RDF>
      <cc:Work
         rdf:about="">
        <dc:format>image/svg+xml</dc:format>
        <dc:type
           rdf:resource="http://purl.org/dc/dcmitype/StillImage" />
        <dc:title></dc:title>
      </cc:Work>
    </rdf:RDF>
  </metadata>
  <g
     inkscape:label="Ebene 1"
     inkscape:groupmode="layer"
     id="layer1"
     transform="translate(0,-308.2677)">
    <rect
       id="rect2839"
       width="500"
       height="560"
       x="140"
       y="452.36218"
       style="fill:none;stroke:#000000;stroke-width:1.12815213" />
    <path
       style="fill:none;stroke:#000000;stroke-width:1;stroke-linecap:butt;stroke-linejoin:miter;stroke-opacity:1;marker-start:none;marker-end:none;stroke-miterlimit:4;stroke-dasharray:none"
       d="m 610,762.36218 4.96775,-6.62367 L 640,722.36218"
       id="path2857"
       sodipodi:nodetypes="ccc" />
    <path
       sodipodi:type="arc"
       style="fill:#000000;stroke:#000000;stroke-width:1"
       id="path7505"
       sodipodi:cx="565"
       sodipodi:cy="418.09448"
       sodipodi:rx="1"
       sodipodi:ry="1"
       d="m 566,418.09448 a 1,1 0 1 1 -2,0 1,1 0 1 1 2,0 z"
       transform="matrix(3.0000297,0,0,3.0000297,-1085.0168,-491.93365)" />
    <path
       sodipodi:nodetypes="ccc"
       id="path2859"
       d="M 640,722.36218 649.9355,709.11484 700,642.36218"
       style="fill:none;stroke:#000000;stroke-width:1;stroke-linecap:butt;stroke-linejoin:miter;stroke-opacity:1;marker-start:none;marker-end:url(#Arrow1Lend)" />
    <path
       sodipodi:type="arc"
       style="fill:#000000;stroke:#000000;stroke-width:1"
       id="path9039"
       sodipodi:cx="565"
       sodipodi:cy="418.09448"
       sodipodi:rx="1"
       sodipodi:ry="1"
       d="m 566,418.09448 a 1,1 0 1 1 -2,0 1,1 0 1 1 2,0 z"
       transform="matrix(3.0000297,0,0,3.0000297,-995.01681,-611.93368)" />
    <path
       transform="matrix(3.0000297,0,0,3.0000297,-905.01675,-731.93368)"
       d="m 566,418.09448 a 1,1 0 1 1 -2,0 1,1 0 1 1 2,0 z"
       sodipodi:ry="1"
       sodipodi:rx="1"
       sodipodi:cy="418.09448"
       sodipodi:cx="565"
       id="path9041"
       style="fill:#000000;stroke:#000000;stroke-width:1"
       sodipodi:type="arc" />
    <g
       id="g10643"
       style="fill:#000080;stroke:#000080">
      <path
         style="font-size:medium;font-style:normal;font-variant:normal;font-weight:normal;font-stretch:normal;text-indent:0;text-align:start;text-decoration:none;line-height:normal;letter-spacing:normal;word-spacing:normal;text-transform:none;direction:ltr;block-progression:tb;writing-mode:lr-tb;text-anchor:start;color:#000000;fill:#000080;fill-opacity:1;fill-rule:nonzero;stroke:#000080;stroke-width:1;marker:none;visibility:visible;display:inline;overflow:visible;enable-background:accumulate;font-family:Bitstream Vera Sans;-inkscape-font-specification:Bitstream Vera Sans"
         d="m 580.40625,642.0625 -0.8125,0.59375 50.0625,66.75 9.9375,13.25 0.8125,-0.59375 -9.9375,-13.25 -50.0625,-66.75 z"
         id="path9436" />
      <path
         style="fill-rule:evenodd;stroke:#000080;stroke-width:0.80000000000000004pt;marker-start:none;fill:#000080"
         d="m 586,650.36218 5.6,0.8 -11.6,-8.8 5.2,13.6 0.8,-5.6 z"
         id="path10649" />
    </g>
    <path
       transform="matrix(-3.0000297,0,0,3.0000297,2275.0168,-611.93368)"
       d="m 566,418.09448 a 1,1 0 1 1 -2,0 1,1 0 1 1 2,0 z"
       sodipodi:ry="1"
       sodipodi:rx="1"
       sodipodi:cy="418.09448"
       sodipodi:cx="565"
       id="path9442"
       style="fill:#000080;stroke:#000080;stroke-width:1"
       sodipodi:type="arc" />
    <path
       sodipodi:type="arc"
       style="fill:#000080;stroke:#000080;stroke-width:1"
       id="path9444"
       sodipodi:cx="565"
       sodipodi:cy="418.09448"
       sodipodi:rx="1"
       sodipodi:ry="1"
       d="m 566,418.09448 a 1,1 0 1 1 -2,0 1,1 0 1 1 2,0 z"
       transform="matrix(-3.0000297,0,0,3.0000297,2185.0167,-731.93368)" />
    <g
       id="g10635"
       style="fill:#008000;stroke:#008000">
      <path
         style="font-size:medium;font-style:normal;font-variant:normal;font-weight:normal;font-stretch:normal;text-indent:0;text-align:start;text-decoration:none;line-height:normal;letter-spacing:normal;word-spacing:normal;text-transform:none;direction:ltr;block-progression:tb;writing-mode:lr-tb;text-anchor:start;color:#000000;fill:#008000;fill-opacity:1;fill-rule:nonzero;stroke:#008000;stroke-width:1;marker:none;visibility:visible;display:inline;overflow:visible;enable-background:accumulate;font-family:Bitstream Vera Sans;-inkscape-font-specification:Bitstream Vera Sans"
         d="m 199.59375,642.0625 -50.0625,66.75 -9.9375,13.25 0.8125,0.59375 9.9375,-13.25 50.0625,-66.75 -0.8125,-0.59375 z"
         id="path9459" />
      <path
         style="fill-rule:evenodd;stroke:#008000;stroke-width:0.80000000000000004pt;marker-start:none;fill:#008000"
         d="m 193.99999,650.36215 0.8,5.6 5.2,-13.6 -11.6,8.8 5.6,-0.8 z"
         id="path10641" />
    </g>
    <path
       transform="matrix(3.0000297,0,0,3.0000297,-1495.0168,-611.93371)"
       d="m 566,418.09448 a 1,1 0 1 1 -2,0 1,1 0 1 1 2,0 z"
       sodipodi:ry="1"
       sodipodi:rx="1"
       sodipodi:cy="418.09448"
       sodipodi:cx="565"
       id="path9465"
       style="fill:#008000;stroke:#008000;stroke-width:1"
       sodipodi:type="arc" />
    <path
       sodipodi:type="arc"
       style="fill:#008000;stroke:#008000;stroke-width:1"
       id="path9467"
       sodipodi:cx="565"
       sodipodi:cy="418.09448"
       sodipodi:rx="1"
       sodipodi:ry="1"
       d="m 566,418.09448 a 1,1 0 1 1 -2,0 1,1 0 1 1 2,0 z"
       transform="matrix(3.0000297,0,0,3.0000297,-1405.0168,-731.93371)" />
    <path
       style="fill:none;stroke:#000000;stroke-width:1.10302603000000010;stroke-linecap:butt;stroke-linejoin:miter;stroke-opacity:1;stroke-miterlimit:4;stroke-dasharray:2.20605206000000020, 4.41210413000000035;stroke-dashoffset:0;opacity:0.5"
       d="m 100,522.36218 730,0"
       id="path9469" />
    <path
       id="path9471"
       d="m 100,642.36218 730,0"
       style="opacity:0.5;fill:none;stroke:#000000;stroke-width:1.10302603;stroke-linecap:butt;stroke-linejoin:miter;stroke-miterlimit:4;stroke-opacity:1;stroke-dasharray:2.20605206, 4.41210413;stroke-dashoffset:0" />
    <path
       style="opacity:0.5;fill:none;stroke:#000000;stroke-width:1.10302603;stroke-linecap:butt;stroke-linejoin:miter;stroke-miterlimit:4;stroke-opacity:1;stroke-dasharray:2.20605206, 4.41210413;stroke-dashoffset:0"
       d="m 100,722.36218 730,0"
       id="path9473" />
    <path
       id="path9475"
       d="m 100,762.36218 730,0"
       style="opacity:0.5;fill:none;stroke:#000000;stroke-width:1.10302603;stroke-linecap:butt;stroke-linejoin:miter;stroke-miterlimit:4;stroke-opacity:1;stroke-dasharray:2.20605206, 4.41210413;stroke-dashoffset:0" />
    <text
       id="text9481"
       y="626.36218"
       x="745"
       style="font-size:14.7868681px;font-style:normal;font-weight:normal;fill:#000000;fill-opacity:1;stroke:none;font-family:Bitstream Vera Sans"
       xml:space="preserve"><tspan
         y="626.36218"
         x="745"
         sodipodi:role="line"
         id="tspan9485">stepTarget</tspan></text>
    <text
       xml:space="preserve"
       style="font-size:14.7868681px;font-style:normal;font-weight:normal;fill:#000000;fill-opacity:1;stroke:none;font-family:Bitstream Vera Sans"
       x="561"
       y="817.36218"
       id="text9489"><tspan
         id="tspan9491"
         sodipodi:role="line"
         x="561"
         y="817.36218">startPos</tspan></text>
    <path
       sodipodi:type="arc"
       style="fill:none;stroke:#000000;stroke-width:0.79037517;stroke-miterlimit:4;stroke-dasharray:none;stroke-dashoffset:0"
       id="path10157"
       sodipodi:cx="725"
       sodipodi:cy="519.09448"
       sodipodi:rx="80.595543"
       sodipodi:ry="160.78865"
       d="m 684.70223,658.34154 a 80.595543,160.78865 0 0 1 -28.6753,-56.06801"
       transform="matrix(0.5763435,0,0,-0.69437168,211.37632,1223.4959)"
       sodipodi:start="2.0943951"
       sodipodi:end="2.5978773"
       sodipodi:open="true" />
    <path
       sodipodi:type="arc"
       style="fill:none;stroke:#000000;stroke-width:1.10302603;stroke-miterlimit:4;stroke-dasharray:none;stroke-dashoffset:0"
       id="path10157-2"
       sodipodi:cx="725"
       sodipodi:cy="519.09448"
       sodipodi:rx="80.595543"
       sodipodi:ry="160.78865"
       d="m 684.70223,658.34154 a 80.595543,160.78865 0 0 1 -28.6753,-56.06801"
       transform="matrix(0,0.5763435,-0.69437168,0,1162.1337,244.7385)"
       sodipodi:start="2.0943951"
       sodipodi:end="2.5978773"
       sodipodi:open="true" />
    <text
       xml:space="preserve"
       style="font-size:14.7868681px;font-style:normal;font-weight:normal;fill:#000000;fill-opacity:1;stroke:none;font-family:Bitstream Vera Sans"
       x="675"
       y="506.36218"
       id="text10183"><tspan
         id="tspan10185"
         sodipodi:role="line"
         x="675"
         y="506.36218">targetPos</tspan></text>
    <path
       sodipodi:open="true"
       sodipodi:end="2.5978773"
       sodipodi:start="2.0943951"
       transform="matrix(0,0.5763435,0.69437168,0,327.86628,124.7385)"
       d="m 684.70223,658.34154 a 80.595543,160.78865 0 0 1 -28.6753,-56.06801"
       sodipodi:ry="160.78865"
       sodipodi:rx="80.595543"
       sodipodi:cy="519.09448"
       sodipodi:cx="725"
       id="path10187"
       style="fill:none;stroke:#000000;stroke-width:1.10302603;stroke-miterlimit:4;stroke-dasharray:none;stroke-dashoffset:0"
       sodipodi:type="arc" />
    <path
       sodipodi:type="arc"
       style="fill:none;stroke:#000000;stroke-width:1.10302603;stroke-miterlimit:4;stroke-dasharray:none;stroke-dashoffset:0"
       id="path10157-2-4"
       sodipodi:cx="725"
       sodipodi:cy="519.09448"
       sodipodi:rx="80.595543"
       sodipodi:ry="160.78865"
       d="m 684.70223,658.34154 a 80.595543,160.78865 0 0 1 -28.6753,-56.06801"
       transform="matrix(0,0.5763435,0.69437168,0,117.86628,244.7385)"
       sodipodi:start="2.0943951"
       sodipodi:end="2.5978773"
       sodipodi:open="true" />
    <text
       id="text9481-8"
       y="626.36218"
       x="457"
       style="font-size:14.7868681px;font-style:normal;font-weight:normal;fill:#000000;fill-opacity:1;stroke:none;font-family:Bitstream Vera Sans"
       xml:space="preserve"><tspan
         y="626.36218"
         x="457"
         sodipodi:role="line"
         id="tspan9485-3">stepTarget</tspan></text>
    <text
       xml:space="preserve"
       style="font-size:14.7868681px;font-style:normal;font-weight:normal;fill:#000000;fill-opacity:1;stroke:none;font-family:Bitstream Vera Sans"
       x="535"
       y="506.36218"
       id="text10183-9"><tspan
         id="tspan10185-0"
         sodipodi:role="line"
         x="535"
         y="506.36218">targetPos</tspan></text>
    <path
       sodipodi:open="true"
       sodipodi:end="2.5978773"
       sodipodi:start="2.0943951"
       transform="matrix(0,0.5763435,-0.69437168,0,952.13372,124.7385)"
       d="m 684.70223,658.34154 a 80.595543,160.78865 0 0 1 -28.6753,-56.06801"
       sodipodi:ry="160.78865"
       sodipodi:rx="80.595543"
       sodipodi:cy="519.09448"
       sodipodi:cx="725"
       id="path10187-5"
       style="fill:none;stroke:#000000;stroke-width:1.10302603;stroke-miterlimit:4;stroke-dasharray:none;stroke-dashoffset:0"
       sodipodi:type="arc" />
    <text
       id="text9481-2"
       y="626.36224"
       x="245.00003"
       style="font-size:14.7868681px;font-style:normal;font-weight:normal;fill:#000000;fill-opacity:1;stroke:none;font-family:Bitstream Vera Sans"
       xml:space="preserve"><tspan
         y="626.36224"
         x="245.00003"
         sodipodi:role="line"
         id="tspan9485-2">stepTarget</tspan></text>
    <path
       sodipodi:type="arc"
       style="fill:none;stroke:#000000;stroke-width:1.10302603;stroke-miterlimit:4;stroke-dasharray:none;stroke-dashoffset:0"
       id="path10157-2-7"
       sodipodi:cx="725"
       sodipodi:cy="519.09448"
       sodipodi:rx="80.595543"
       sodipodi:ry="160.78865"
       d="m 684.70223,658.34154 a 80.595543,160.78865 0 0 1 -28.6753,-56.06801"
       transform="matrix(0,0.5763435,-0.69437168,0,662.13372,244.7385)"
       sodipodi:start="2.0943951"
       sodipodi:end="2.5978773"
       sodipodi:open="true" />
    <text
       xml:space="preserve"
       style="font-size:14.7868681px;font-style:normal;font-weight:normal;fill:#000000;fill-opacity:1;stroke:none;font-family:Bitstream Vera Sans"
       x="335"
       y="506.36218"
       id="text10183-9-3"><tspan
         id="tspan10185-0-7"
         sodipodi:role="line"
         x="335"
         y="506.36218">targetPos</tspan></text>
    <path
       sodipodi:open="true"
       sodipodi:end="2.5978773"
       sodipodi:start="2.0943951"
       transform="matrix(0,0.5763435,-0.69437168,0,752.13372,124.7385)"
       d="m 684.70223,658.34154 a 80.595543,160.78865 0 0 1 -28.6753,-56.06801"
       sodipodi:ry="160.78865"
       sodipodi:rx="80.595543"
       sodipodi:cy="519.09448"
       sodipodi:cx="725"
       id="path10187-5-9"
       style="fill:none;stroke:#000000;stroke-width:1.10302603;stroke-miterlimit:4;stroke-dasharray:none;stroke-dashoffset:0"
       sodipodi:type="arc" />
    <path
       sodipodi:type="arc"
       style="fill:#800000;stroke:#800000;stroke-width:1"
       id="path9467-0"
       sodipodi:cx="565"
       sodipodi:cy="418.09448"
       sodipodi:rx="1"
       sodipodi:ry="1"
       d="m 566,418.09448 a 1,1 0 1 1 -2,0 1,1 0 1 1 2,0 z"
       transform="matrix(3.0000297,0,0,3.0000297,-1334.49,-574.86575)" />
    <text
       xml:space="preserve"
       style="font-size:14.7868681px;font-style:normal;font-weight:normal;fill:#000000;fill-opacity:1;stroke:none;font-family:Bitstream Vera Sans"
       x="308.52686"
       y="732.43005"
       id="text10183-9-3-2"><tspan
         id="tspan10185-0-7-3"
         sodipodi:role="line"
         x="308.52686"
         y="732.43005">targetPos,</tspan><tspan
         sodipodi:role="line"
         x="308.52686"
         y="750.91364"
         id="tspan15530">stepTarget,</tspan><tspan
         sodipodi:role="line"
         x="308.52686"
         y="769.39722"
         id="tspan15532">borderStart</tspan></text>
    <path
       sodipodi:open="true"
       sodipodi:end="2.5978773"
       sodipodi:start="2.0943951"
       transform="matrix(0.5763435,0,0,-0.69437168,-38.096859,1140.5639)"
       d="m 684.70223,658.34154 a 80.595543,160.78865 0 0 1 -28.6753,-56.06801"
       sodipodi:ry="160.78865"
       sodipodi:rx="80.595543"
       sodipodi:cy="519.09448"
       sodipodi:cx="725"
       id="path10187-5-9-9"
       style="fill:none;stroke:#000000;stroke-width:1.10302603;stroke-miterlimit:4;stroke-dasharray:none;stroke-dashoffset:0"
       sodipodi:type="arc" />
    <text
       xml:space="preserve"
       style="font-size:14.7868681px;font-style:normal;font-weight:normal;fill:#008000;fill-opacity:1;stroke:#008000;font-family:Bitstream Vera Sans"
       x="295"
       y="537.36218"
       id="text10183-9-3-9"><tspan
         id="tspan10185-0-7-7"
         sodipodi:role="line"
         x="295"
         y="537.36218">WRAP</tspan></text>
    <text
       xml:space="preserve"
       style="font-size:14.7868681px;font-style:normal;font-weight:normal;fill:#000080;fill-opacity:1;stroke:#000080;font-family:Bitstream Vera Sans"
       x="420"
       y="537.36218"
       id="text10183-9-3-3"><tspan
         sodipodi:role="line"
         x="420"
         y="537.36218"
         id="tspan10616">REFLECT</tspan></text>
    <text
       xml:space="preserve"
       style="font-size:14.7868681px;font-style:normal;font-weight:normal;fill:#800000;fill-opacity:1;stroke:#800000;font-family:Bitstream Vera Sans"
       x="365.52676"
       y="694.43018"
       id="text10183-9-3-6"><tspan
         id="tspan10185-0-7-5"
         sodipodi:role="line"
         x="365.52676"
         y="694.43018">PLACERANDOMLY</tspan></text>
    <text
       xml:space="preserve"
       style="font-size:14.7868681px;font-style:normal;font-weight:normal;fill:#000000;fill-opacity:1;stroke:#000000;font-family:Bitstream Vera Sans"
       x="150"
       y="472.36218"
       id="text10183-9-3-6-7"><tspan
         id="tspan10185-0-7-5-6"
         sodipodi:role="line"
         x="150"
         y="472.36218">PLAYGROUND</tspan></text>
    <g
       id="g15459"
       style="fill:#800080;stroke:#800080"
       transform="translate(-14.8125,0.15698242)">
      <path
         style="font-size:medium;font-style:normal;font-variant:normal;font-weight:normal;font-stretch:normal;text-indent:0;text-align:start;text-decoration:none;line-height:normal;letter-spacing:normal;word-spacing:normal;text-transform:none;direction:ltr;block-progression:tb;writing-mode:lr-tb;text-anchor:start;color:#000000;fill:#800080;fill-opacity:1;stroke:#800080;stroke-width:0.50000000000000000;marker:none;visibility:visible;display:inline;overflow:visible;enable-background:accumulate;font-family:Bitstream Vera Sans;-inkscape-font-specification:Bitstream Vera Sans"
         d="m 669.8125,722.2052 -30,40 0.375,0.3125 30,-40 -0.375,-0.3125 z"
         id="path14795" />
      <path
         style="fill:#800080;fill-rule:evenodd;stroke:#800080;stroke-width:0.40000000000000002pt;marker-start:none"
         d="m 667,726.36218 0.4,2.8 2.6,-6.8 -5.8,4.4 2.8,-0.4 z"
         id="path15465" />
    </g>
    <text
       xml:space="preserve"
       style="font-size:14.7868681px;font-style:normal;font-weight:normal;fill:#000000;fill-opacity:1;stroke:none;font-family:Bitstream Vera Sans"
       x="645"
       y="752.36218"
       id="text14998"><tspan
         sodipodi:role="line"
         x="645"
         y="752.36218"
         id="tspan15002">borderStep</tspan></text>
    <path
       sodipodi:type="arc"
       style="fill:none;stroke:#000000;stroke-width:1.10302603;stroke-miterlimit:4;stroke-dasharray:none;stroke-dashoffset:0"
       id="path15006"
       sodipodi:cx="725"
       sodipodi:cy="519.09448"
       sodipodi:rx="80.595543"
       sodipodi:ry="160.78865"
       d="m 684.70223,658.34154 a 80.595543,160.78865 0 0 1 -28.6753,-56.06801"
       transform="matrix(0,0.5763435,-0.69437168,0,602.13372,324.7385)"
       sodipodi:start="2.0943951"
       sodipodi:end="2.5978773"
       sodipodi:open="true" />
    <text
       id="text15008"
       y="706.36218"
       x="185"
       style="font-size:14.7868681px;font-style:normal;font-weight:normal;fill:#000000;fill-opacity:1;stroke:none;font-family:Bitstream Vera Sans"
       xml:space="preserve"><tspan
         id="tspan15010"
         y="706.36218"
         x="185"
         sodipodi:role="line">borderStart</tspan></text>
    <path
       sodipodi:type="arc"
       style="fill:#800080;stroke:#800080;stroke-width:1"
       id="path9463"
       sodipodi:cx="565"
       sodipodi:cy="418.09448"
       sodipodi:rx="1"
       sodipodi:ry="1"
       d="m 566,418.09448 a 1,1 0 1 1 -2,0 1,1 0 1 1 2,0 z"
       transform="matrix(3.0000297,0,0,3.0000297,-1555.0168,-531.93368)" />
    <path
       transform="matrix(3.0000297,0,0,3.0000297,-1055.0168,-531.93365)"
       d="m 566,418.09448 a 1,1 0 1 1 -2,0 1,1 0 1 1 2,0 z"
       sodipodi:ry="1"
       sodipodi:rx="1"
       sodipodi:cy="418.09448"
       sodipodi:cx="565"
       id="path9037"
       style="fill:#800080;stroke:#800080;stroke-width:1"
       sodipodi:type="arc" />
    <path
       sodipodi:open="true"
       sodipodi:end="2.5978773"
       sodipodi:start="2.0943951"
       transform="matrix(0,0.5763435,0.69437168,0,177.86628,324.7385)"
       d="m 684.70223,658.34154 a 80.595543,160.78865 0 0 1 -28.6753,-56.06801"
       sodipodi:ry="160.78865"
       sodipodi:rx="80.595543"
       sodipodi:cy="519.09448"
       sodipodi:cx="725"
       id="path15496"
       style="fill:none;stroke:#000000;stroke-width:1.10302603;stroke-miterlimit:4;stroke-dasharray:none;stroke-dashoffset:0"
       sodipodi:type="arc" />
    <text
       xml:space="preserve"
       style="font-size:14.7868681px;font-style:normal;font-weight:normal;fill:#000000;fill-opacity:1;stroke:none;font-family:Bitstream Vera Sans"
       x="510"
       y="706.36218"
       id="text15498"><tspan
         sodipodi:role="line"
         x="510"
         y="706.36218"
         id="tspan15500">borderStart</tspan></text>
    <g
       id="g15542"
       transform="translate(-190,2.4218748e-6)">
      <path
         sodipodi:nodetypes="ccc"
         id="path2861"
         d="m 890,642.36218 2.48387,-3.31183 L 905,622.36218"
         style="fill:none;stroke:#000000;stroke-width:1;stroke-linecap:butt;stroke-linejoin:miter;stroke-miterlimit:4;stroke-opacity:1;stroke-dasharray:none;marker-start:none;marker-end:none" />
      <path
         style="fill:none;stroke:#000000;stroke-width:1;stroke-linecap:butt;stroke-linejoin:miter;stroke-miterlimit:4;stroke-opacity:1;stroke-dasharray:none;marker-start:none;marker-end:none"
         d="m 965,542.36218 2.48387,-3.31183 L 980,522.36218"
         id="path15534"
         sodipodi:nodetypes="ccc" />
      <path
         style="fill:none;stroke:#000000;stroke-width:1;stroke-linecap:butt;stroke-linejoin:miter;stroke-miterlimit:4;stroke-opacity:1;stroke-dasharray:1, 4;stroke-dashoffset:0;marker-start:none;marker-end:none"
         d="m 920,602.36218 4.96775,-6.62367 L 950,562.36218"
         id="path15540"
         sodipodi:nodetypes="ccc" />
    </g>
    <path
       style="font-size:medium;font-style:normal;font-variant:normal;font-weight:normal;font-stretch:normal;text-indent:0;text-align:start;text-decoration:none;line-height:normal;letter-spacing:normal;word-spacing:normal;text-transform:none;direction:ltr;block-progression:tb;writing-mode:lr-tb;text-anchor:start;color:#000000;fill:#008000;fill-opacity:1;fill-rule:nonzero;stroke:#008000;stroke-width:1;marker:none;visibility:visible;display:inline;overflow:visible;enable-background:accumulate;font-family:Bitstream Vera Sans;-inkscape-font-specification:Bitstream Vera Sans"
       d="m 214.59375,622.0625 -12.5,16.6875 -2.5,3.3125 0.8125,0.59375 2.46875,-3.3125 12.53125,-16.6875 -0.8125,-0.59375 z"
       id="path15549" />
    <path
       style="font-size:medium;font-style:normal;font-variant:normal;font-weight:normal;font-stretch:normal;text-indent:0;text-align:start;text-decoration:none;line-height:normal;letter-spacing:normal;word-spacing:normal;text-transform:none;direction:ltr;block-progression:tb;writing-mode:lr-tb;text-anchor:start;color:#000000;fill:#008000;fill-opacity:1;fill-rule:nonzero;stroke:#008000;stroke-width:1;marker:none;visibility:visible;display:inline;overflow:visible;enable-background:accumulate;font-family:Bitstream Vera Sans;-inkscape-font-specification:Bitstream Vera Sans"
       d="m 289.59375,522.0625 -12.5,16.6875 -2.5,3.3125 0.8125,0.59375 2.46875,-3.3125 12.53125,-16.6875 -0.8125,-0.59375 z"
       id="path15551" />
    <path
       style="font-size:medium;font-style:normal;font-variant:normal;font-weight:normal;font-stretch:normal;text-indent:0;text-align:start;text-decoration:none;line-height:normal;letter-spacing:normal;word-spacing:normal;text-transform:none;direction:ltr;block-progression:tb;writing-mode:lr-tb;text-anchor:start;color:#000000;fill:#008000;fill-opacity:1;fill-rule:nonzero;stroke:#008000;stroke-width:1;marker:none;visibility:visible;display:inline;overflow:visible;enable-background:accumulate;font-family:Bitstream Vera Sans;-inkscape-font-specification:Bitstream Vera Sans"
       d="m 256.59375,566.0625 0.8125,0.59375 L 258,565.875 257.1875,565.25 z m -3,4 0.8125,0.59375 L 255,569.875 254.1875,569.25 z m -3,4 0.8125,0.59375 L 252,573.875 251.1875,573.25 z m -3,4 0.8125,0.59375 L 249,577.875 248.1875,577.25 z m -3,4 0.8125,0.59375 L 246,581.875 245.1875,581.25 z m -3,4 0.8125,0.59375 L 243,585.875 242.1875,585.25 z m -3,4 0.8125,0.59375 L 240,589.875 239.1875,589.25 z m -3,4 0.8125,0.59375 L 237,593.875 236.1875,593.25 z m -3,4 0.8125,0.59375 L 234,597.875 233.1875,597.25 z m -3,4 0.8125,0.59375 L 231,601.875 230.1875,601.25 z"
       id="path15553" />
    <path
       style="font-size:medium;font-style:normal;font-variant:normal;font-weight:normal;font-stretch:normal;text-indent:0;text-align:start;text-decoration:none;line-height:normal;letter-spacing:normal;word-spacing:normal;text-transform:none;direction:ltr;block-progression:tb;writing-mode:lr-tb;text-anchor:start;color:#000000;fill:#000080;fill-opacity:1;stroke:#000080;stroke-width:1;marker:none;visibility:visible;display:inline;overflow:visible;enable-background:accumulate;font-family:Bitstream Vera Sans;-inkscape-font-specification:Bitstream Vera Sans"
       d="m 565.40625,622.0625 -0.8125,0.59375 12.53125,16.6875 2.46875,3.3125 0.8125,-0.59375 -2.5,-3.3125 -12.5,-16.6875 z"
       id="path15557" />
    <path
       style="font-size:medium;font-style:normal;font-variant:normal;font-weight:normal;font-stretch:normal;text-indent:0;text-align:start;text-decoration:none;line-height:normal;letter-spacing:normal;word-spacing:normal;text-transform:none;direction:ltr;block-progression:tb;writing-mode:lr-tb;text-anchor:start;color:#000000;fill:#000080;fill-opacity:1;stroke:#000080;stroke-width:1;marker:none;visibility:visible;display:inline;overflow:visible;enable-background:accumulate;font-family:Bitstream Vera Sans;-inkscape-font-specification:Bitstream Vera Sans"
       d="m 490.40625,522.0625 -0.8125,0.59375 12.53125,16.6875 2.46875,3.3125 0.8125,-0.59375 -2.5,-3.3125 -12.5,-16.6875 z"
       id="path15559" />
    <path
       style="font-size:medium;font-style:normal;font-variant:normal;font-weight:normal;font-stretch:normal;text-indent:0;text-align:start;text-decoration:none;line-height:normal;letter-spacing:normal;word-spacing:normal;text-transform:none;direction:ltr;block-progression:tb;writing-mode:lr-tb;text-anchor:start;color:#000000;fill:#000080;fill-opacity:1;stroke:#000080;stroke-width:1;marker:none;visibility:visible;display:inline;overflow:visible;enable-background:accumulate;font-family:Bitstream Vera Sans;-inkscape-font-specification:Bitstream Vera Sans"
       d="m 522,565.875 0.59375,0.78125 0.8125,-0.59375 -0.59375,-0.8125 z m 3,4 0.59375,0.78125 0.8125,-0.59375 -0.59375,-0.8125 z m 3,4 0.59375,0.78125 0.8125,-0.59375 -0.59375,-0.8125 z m 3,4 0.59375,0.78125 0.8125,-0.59375 -0.59375,-0.8125 z m 3,4 0.59375,0.78125 0.8125,-0.59375 -0.59375,-0.8125 z m 3,4 0.59375,0.78125 0.8125,-0.59375 -0.59375,-0.8125 z m 3,4 0.59375,0.78125 0.8125,-0.59375 -0.59375,-0.8125 z m 3,4 0.59375,0.78125 0.8125,-0.59375 -0.59375,-0.8125 z m 3,4 0.59375,0.78125 0.8125,-0.59375 -0.59375,-0.8125 z m 3,4 0.59375,0.78125 0.8125,-0.59375 -0.59375,-0.8125 z"
       id="path15561" />
    <text
       id="text15605"
       y="886.36218"
       x="164"
       style="font-size:14.7868681px;font-style:normal;font-weight:normal;fill:#000000;fill-opacity:1;stroke:none;font-family:Bitstream Vera Sans"
       xml:space="preserve"><tspan
         y="886.36218"
         x="164"
         sodipodi:role="line"
         id="tspan15607">startPos</tspan></text>
    <path
       sodipodi:open="true"
       sodipodi:end="2.5978773"
       sodipodi:start="2.0943951"
       transform="matrix(-0.5763435,0,0,0.69437168,567.62368,470.22846)"
       d="m 684.70223,658.34154 a 80.595543,160.78865 0 0 1 -28.6753,-56.06801"
       sodipodi:ry="160.78865"
       sodipodi:rx="80.595543"
       sodipodi:cy="519.09448"
       sodipodi:cx="725"
       id="path15609"
       style="fill:none;stroke:#000000;stroke-width:0.79037517;stroke-miterlimit:4;stroke-dasharray:none;stroke-dashoffset:0"
       sodipodi:type="arc" />
    <text
       id="text15619"
       y="928.36218"
       x="13"
       style="font-size:14.7868681px;font-style:normal;font-weight:normal;fill:#000000;fill-opacity:1;stroke:none;font-family:Bitstream Vera Sans"
       xml:space="preserve"><tspan
         id="tspan15621"
         y="928.36218"
         x="13"
         sodipodi:role="line">borderStep1</tspan></text>
    <path
       sodipodi:nodetypes="ccc"
       id="path15593"
       d="m 169.99985,932.36211 -4.96775,6.6237 -25.03225,33.37632"
       style="fill:none;stroke:#000000;stroke-width:1;stroke-linecap:butt;stroke-linejoin:miter;stroke-miterlimit:4;stroke-opacity:1;stroke-dasharray:none;marker-start:none;marker-end:none" />
    <path
       transform="matrix(-3.0000297,0,0,-3.0000297,1865.0168,2186.658)"
       d="m 566,418.09448 a 1,1 0 1 1 -2,0 1,1 0 1 1 2,0 z"
       sodipodi:ry="1"
       sodipodi:rx="1"
       sodipodi:cy="418.09448"
       sodipodi:cx="565"
       id="path15595"
       style="fill:#000000;stroke:#000000;stroke-width:1"
       sodipodi:type="arc" />
    <path
       style="fill:none;stroke:#000000;stroke-width:1;stroke-linecap:butt;stroke-linejoin:miter;stroke-opacity:1;marker-start:none;marker-end:url(#Arrow1Lend)"
       d="m 139.99985,972.36213 -9.9355,13.24734 -50.064499,66.75263"
       id="path15597"
       sodipodi:nodetypes="ccc" />
    <path
       transform="matrix(-3.0000297,0,0,-3.0000297,1775.0168,2306.658)"
       d="m 566,418.09448 a 1,1 0 1 1 -2,0 1,1 0 1 1 2,0 z"
       sodipodi:ry="1"
       sodipodi:rx="1"
       sodipodi:cy="418.09448"
       sodipodi:cx="565"
       id="path15599"
       style="fill:#000000;stroke:#000000;stroke-width:1"
       sodipodi:type="arc" />
    <g
       id="g15938"
       style="fill:#000080;stroke:#000080">
      <path
         style="font-size:medium;font-style:normal;font-variant:normal;font-weight:normal;font-stretch:normal;text-indent:0;text-align:start;text-decoration:none;line-height:normal;letter-spacing:normal;word-spacing:normal;text-transform:none;direction:ltr;block-progression:tb;writing-mode:lr-tb;text-anchor:start;color:#000000;fill:#000080;fill-opacity:1;fill-rule:nonzero;stroke:#000080;stroke-width:1;marker:none;visibility:visible;display:inline;overflow:visible;enable-background:accumulate;font-family:Bitstream Vera Sans;-inkscape-font-specification:Bitstream Vera Sans"
         d="m 140.40625,972.0625 -0.8125,0.59375 9.9375,13.25 50.0625,66.74995 0.8125,-0.5937 -50.0625,-66.75 -9.9375,-13.25 z"
         id="path15856" />
      <path
         style="fill-rule:evenodd;stroke:#000080;stroke-width:0.80000000000000004pt;marker-start:none;fill:#000080"
         d="m 194,1044.3622 -5.6,-0.8 11.6,8.8 -5.2,-13.6 -0.8,5.6 z"
         id="path15942" />
    </g>
    <path
       sodipodi:type="arc"
       style="fill:#000080;stroke:#000080;stroke-width:1"
       id="path15858"
       sodipodi:cx="565"
       sodipodi:cy="418.09448"
       sodipodi:rx="1"
       sodipodi:ry="1"
       d="m 566,418.09448 a 1,1 0 1 1 -2,0 1,1 0 1 1 2,0 z"
       transform="matrix(3.0000297,0,0,-3.0000297,-1495.017,2306.6581)" />
    <g
       id="g16234"
       style="fill:#000080;stroke:#000080">
      <path
         style="font-size:medium;font-style:normal;font-variant:normal;font-weight:normal;font-stretch:normal;text-indent:0;text-align:start;text-decoration:none;line-height:normal;letter-spacing:normal;word-spacing:normal;text-transform:none;direction:ltr;block-progression:tb;writing-mode:lr-tb;text-anchor:start;color:#000000;fill:#000080;fill-opacity:1;fill-rule:nonzero;stroke:#000080;stroke-width:1;marker:none;visibility:visible;display:inline;overflow:visible;enable-background:accumulate;font-family:Bitstream Vera Sans;-inkscape-font-specification:Bitstream Vera Sans"
         d="m 199.59375,972.0625 -25.03125,33.375 -4.96875,6.625 0.8125,0.5937 4.96875,-6.625 25.03125,-33.37495 -0.8125,-0.59375 z"
         id="path15870" />
      <path
         style="fill-rule:evenodd;stroke:#000080;stroke-width:0.80000000000000004pt;marker-start:none;fill:#000080"
         d="m 194,980.36218 0.8,5.6 5.2,-13.6 -11.6,8.8 5.6,-0.8 z"
         id="path16238" />
    </g>
    <path
       transform="matrix(3.0000297,0,0,3.0000297,-1495.0169,-281.9336)"
       d="m 566,418.09448 a 1,1 0 1 1 -2,0 1,1 0 1 1 2,0 z"
       sodipodi:ry="1"
       sodipodi:rx="1"
       sodipodi:cy="418.09448"
       sodipodi:cx="565"
       id="path15872"
       style="fill:#000080;stroke:#000080;stroke-width:1"
       sodipodi:type="arc" />
    <path
       transform="matrix(-3.0000297,0,0,-3.0000297,1865.0168,2266.658)"
       d="m 566,418.09448 a 1,1 0 1 1 -2,0 1,1 0 1 1 2,0 z"
       sodipodi:ry="1"
       sodipodi:rx="1"
       sodipodi:cy="418.09448"
       sodipodi:cx="565"
       id="path15944"
       style="fill:#800080;stroke:#800080;stroke-width:1"
       sodipodi:type="arc" />
    <path
       sodipodi:type="arc"
       style="fill:#800080;stroke:#800080;stroke-width:1"
       id="path15623"
       sodipodi:cx="565"
       sodipodi:cy="418.09448"
       sodipodi:rx="1"
       sodipodi:ry="1"
       d="m 566,418.09448 a 1,1 0 1 1 -2,0 1,1 0 1 1 2,0 z"
       transform="matrix(-3.0000297,0,0,-3.0000297,1835.0168,2226.658)" />
    <g
       transform="matrix(1,0,0,-1,-500.1875,1754.8799)"
       style="fill:#800080;stroke:#800080"
       id="g16198">
      <path
         id="path16200"
         d="m 669.8125,722.2052 -30,40 0.375,0.3125 30,-40 -0.375,-0.3125 z"
         style="font-size:medium;font-style:normal;font-variant:normal;font-weight:normal;font-stretch:normal;text-indent:0;text-align:start;text-decoration:none;line-height:normal;letter-spacing:normal;word-spacing:normal;text-transform:none;direction:ltr;block-progression:tb;writing-mode:lr-tb;text-anchor:start;color:#000000;fill:#800080;fill-opacity:1;stroke:#800080;stroke-width:0.5;marker:none;visibility:visible;display:inline;overflow:visible;enable-background:accumulate;font-family:Bitstream Vera Sans;-inkscape-font-specification:Bitstream Vera Sans" />
      <path
         id="path16202"
         d="m 667,726.36218 0.4,2.8 2.6,-6.8 -5.8,4.4 2.8,-0.4 z"
         style="fill:#800080;fill-rule:evenodd;stroke:#800080;stroke-width:0.4pt;marker-start:none" />
    </g>
    <g
       id="g16204"
       style="fill:#800080;stroke:#800080"
       transform="matrix(-1,0,0,-1,810.1875,1674.8799)">
      <path
         style="font-size:medium;font-style:normal;font-variant:normal;font-weight:normal;font-stretch:normal;text-indent:0;text-align:start;text-decoration:none;line-height:normal;letter-spacing:normal;word-spacing:normal;text-transform:none;direction:ltr;block-progression:tb;writing-mode:lr-tb;text-anchor:start;color:#000000;fill:#800080;fill-opacity:1;stroke:#800080;stroke-width:0.5;marker:none;visibility:visible;display:inline;overflow:visible;enable-background:accumulate;font-family:Bitstream Vera Sans;-inkscape-font-specification:Bitstream Vera Sans"
         d="m 669.8125,722.2052 -30,40 0.375,0.3125 30,-40 -0.375,-0.3125 z"
         id="path16206" />
      <path
         style="fill:#800080;fill-rule:evenodd;stroke:#800080;stroke-width:0.4pt;marker-start:none"
         d="m 667,726.36218 0.4,2.8 2.6,-6.8 -5.8,4.4 2.8,-0.4 z"
         id="path16208" />
    </g>
    <text
       xml:space="preserve"
       style="font-size:14.7868681px;font-style:normal;font-weight:normal;fill:#000000;fill-opacity:1;stroke:none;font-family:Bitstream Vera Sans"
       x="100"
       y="1073.3622"
       id="text16210"><tspan
         sodipodi:role="line"
         x="100"
         y="1073.3622"
         id="tspan16214">borderStep2</tspan></text>
    <path
       sodipodi:open="true"
       sodipodi:end="2.5978773"
       sodipodi:start="2.0943951"
       transform="matrix(0,0.5763435,-0.69437168,0,632.13372,615.7385)"
       d="m 684.70223,658.34154 a 80.595543,160.78865 0 0 1 -28.6753,-56.06801"
       sodipodi:ry="160.78865"
       sodipodi:rx="80.595543"
       sodipodi:cy="519.09448"
       sodipodi:cx="725"
       id="path16256"
       style="fill:none;stroke:#000000;stroke-width:0.7903752;stroke-miterlimit:4;stroke-dasharray:none;stroke-dashoffset:0"
       sodipodi:type="arc" />
    <text
       xml:space="preserve"
       style="font-size:14.7868681px;font-style:normal;font-weight:normal;fill:#000000;fill-opacity:1;stroke:none;font-family:Bitstream Vera Sans"
       x="215"
       y="997.36218"
       id="text16258"><tspan
         sodipodi:role="line"
         x="215"
         y="997.36218"
         id="tspan16262">borderStart2</tspan></text>
    <path
       sodipodi:type="arc"
       style="fill:none;stroke:#000000;stroke-width:0.7903752;stroke-miterlimit:4;stroke-dasharray:none;stroke-dashoffset:0"
       id="path16266"
       sodipodi:cx="725"
       sodipodi:cy="519.09448"
       sodipodi:rx="80.595543"
       sodipodi:ry="160.78865"
       d="m 684.70223,658.34154 a 80.595543,160.78865 0 0 1 -28.6753,-56.06801"
       transform="matrix(0,0.5763435,0.69437168,0,-322.13372,575.7385)"
       sodipodi:start="2.0943951"
       sodipodi:end="2.5978773"
       sodipodi:open="true" />
    <text
       id="text16268"
       y="956.36218"
       x="1"
       style="font-size:14.7868681px;font-style:normal;font-weight:normal;fill:#000000;fill-opacity:1;stroke:none;font-family:Bitstream Vera Sans"
       xml:space="preserve"><tspan
         id="tspan16270"
         y="956.36218"
         x="1"
         sodipodi:role="line">borderStart1</tspan></text>
    <path
       sodipodi:open="true"
       sodipodi:end="2.5978773"
       sodipodi:start="2.0943951"
       transform="matrix(0.5763435,0,0,-0.69437168,-234.62368,1479.4959)"
       d="m 684.70223,658.34154 a 80.595543,160.78865 0 0 1 -28.6753,-56.06801"
       sodipodi:ry="160.78865"
       sodipodi:rx="80.595543"
       sodipodi:cy="519.09448"
       sodipodi:cx="725"
       id="path16272"
       style="fill:none;stroke:#000000;stroke-width:0.79037517;stroke-miterlimit:4;stroke-dasharray:none;stroke-dashoffset:0"
       sodipodi:type="arc" />
    <path
       sodipodi:open="true"
       sodipodi:end="2.5978773"
       sodipodi:start="2.0943951"
       transform="matrix(0,0.5763435,0.69437168,0,-312.13372,547.7385)"
       d="m 684.70223,658.34154 a 80.595543,160.78865 0 0 1 -28.6753,-56.06801"
       sodipodi:ry="160.78865"
       sodipodi:rx="80.595543"
       sodipodi:cy="519.09448"
       sodipodi:cx="725"
       id="path16274"
       style="fill:none;stroke:#000000;stroke-width:0.7903752;stroke-miterlimit:4;stroke-dasharray:none;stroke-dashoffset:0"
       sodipodi:type="arc" />
    <text
       xml:space="preserve"
       style="font-size:14.7868681px;font-style:normal;font-weight:normal;fill:#000000;fill-opacity:1;stroke:none;font-family:Bitstream Vera Sans"
       x="245.00002"
       y="956.36218"
       id="text16288"><tspan
         id="tspan16290"
         sodipodi:role="line"
         x="245.00002"
         y="956.36218">stepTarget</tspan></text>
    <path
       sodipodi:open="true"
       sodipodi:end="2.5978773"
       sodipodi:start="2.0943951"
       transform="matrix(0,0.5763435,-0.69437168,0,662.13372,574.7385)"
       d="m 684.70223,658.34154 a 80.595543,160.78865 0 0 1 -28.6753,-56.06801"
       sodipodi:ry="160.78865"
       sodipodi:rx="80.595543"
       sodipodi:cy="519.09448"
       sodipodi:cx="725"
       id="path16292"
       style="fill:none;stroke:#000000;stroke-width:1.10302603;stroke-miterlimit:4;stroke-dasharray:none;stroke-dashoffset:0"
       sodipodi:type="arc" />
  </g>
</svg>
